{
    "asset" : {
        "generator" : "Khronos glTF Blender I/O v1.5.17",
        "version" : "2.0"
    },
    "scene" : 0,
    "scenes" : [
        {
            "name" : "Scene",
            "nodes" : [
                0
            ]
        }
    ],
    "nodes" : [
        {
            "mesh" : 0,
            "name" : "Text"
        }
    ],
    "meshes" : [
        {
            "name" : "Text",
            "primitives" : [
                {
                    "attributes" : {
                        "POSITION" : 0,
                        "NORMAL" : 1
                    },
                    "indices" : 2
                }
            ]
        }
    ],
    "accessors" : [
        {
            "bufferView" : 0,
            "componentType" : 5126,
            "count" : 72206,
            "max" : [
                2.1755330562591553,
                0.5916714668273926,
                0.04344229772686958
            ],
            "min" : [
                -2.1635913848876953,
                -0.021524811163544655,
                -1.0563164949417114
            ],
            "type" : "VEC3"
        },
        {
            "bufferView" : 1,
            "componentType" : 5126,
            "count" : 72206,
            "type" : "VEC3"
        },
        {
            "bufferView" : 2,
            "componentType" : 5125,
            "count" : 72972,
            "type" : "SCALAR"
        }
    ],
    "bufferViews" : [
        {
            "buffer" : 0,
            "byteLength" : 866472,
            "byteOffset" : 0
        },
        {
            "buffer" : 0,
            "byteLength" : 866472,
            "byteOffset" : 866472
        },
        {
            "buffer" : 0,
            "byteLength" : 291888,
            "byteOffset" : 1732944
        }
    ],
    "buffers" : [
        {
            "byteLength" : 2024832,
            "uri" : "data:application/octet-stream;base64,"
        }
    ]
}
