{
    "asset" : {
        "generator" : "Khronos glTF Blender I/O v1.5.17",
        "version" : "2.0"
    },
    "scene" : 0,
    "scenes" : [
        {
            "name" : "Scene",
            "nodes" : [
                0
            ]
        }
    ],
    "nodes" : [
        {
            "mesh" : 0,
            "name" : "Text"
        }
    ],
    "meshes" : [
        {
            "name" : "Text",
            "primitives" : [
                {
                    "attributes" : {
                        "POSITION" : 0,
                        "NORMAL" : 1
                    },
                    "indices" : 2
                }
            ]
        }
    ],
    "accessors" : [
        {
            "bufferView" : 0,
            "componentType" : 5126,
            "count" : 72206,
            "max" : [
                1.0104973316192627,
                0.2756241261959076,
                0.019520286470651627
            ],
            "min" : [
                -1.0194388628005981,
                -0.010264795273542404,
                -0.44257086515426636
            ],
            "type" : "VEC3"
        },
        {
            "bufferView" : 1,
            "componentType" : 5126,
            "count" : 72206,
            "type" : "VEC3"
        },
        {
            "bufferView" : 2,
            "componentType" : 5125,
            "count" : 72972,
            "type" : "SCALAR"
        }
    ],
    "bufferViews" : [
        {
            "buffer" : 0,
            "byteLength" : 866472,
            "byteOffset" : 0
        },
        {
            "buffer" : 0,
            "byteLength" : 866472,
            "byteOffset" : 866472
        },
        {
            "buffer" : 0,
            "byteLength" : 291888,
            "byteOffset" : 1732944
        }
    ],
    "buffers" : [
        {
            "byteLength" : 2024832,
            "uri" : "data:application/octet-stream;base64,"
        }
    ]
}
